# xmcd
#
# Track frame offsets: 
#        150
#        18850
#        39655
#        62156
#        83572
#        102737
#        125357
#        143306
#        162777
#        180781
#        199918
#        214660
#        237047
#        241480
#        261684
#        279594
#
# Disc length: 4046 seconds
#
# Revision: 0
# Processed by: cddbd v1.5.2PL0 Copyright (c) Steve Scherf et al.
# Submitted via: ExactAudioCopy v1.3
#
DISCID=d90fcc10
DTITLE=Brad Paisley - 5th Gear
DYEAR=2007
DGENRE=Country
TTITLE0=All I Wanted Was A Car
TTITLE1=Ticks
TTITLE2=Online
TTITLE3=Letter to Me
TTITLE4=Im Still a Guy
TTITLE5=Some Mistakes
TTITLE6=It Did
TTITLE7=Mr. Policeman
TTITLE8=If Love Was A Plane
TTITLE9=Oh Love
TTITLE10=Better Than This
TTITLE11=With You Without You
TTITLE12=Previously
TTITLE13=Bigger Fish To Fry
TTITLE14=When We All Get To Heaven
TTITLE15=Throttleneck
EXTD=
EXTT0=
EXTT1=
EXTT2=
EXTT3=
EXTT4=
EXTT5=
EXTT6=
EXTT7=
EXTT8=
EXTT9=
EXTT10=
EXTT11=
EXTT12=
EXTT13=
EXTT14=
EXTT15=
PLAYORDER=
